<svg width="128" height="128" viewBox="0 0 128 128" fill="none" xmlns="http://www.w3.org/2000/svg">
<path d="M23.5876 89.5395C24.8968 89.7924 26.1635 89.4351 27.3868 88.9196C28.5918 88.412 30.0525 87.614 31.825 86.6458L31.918 86.5951L40.4955 81.9108C42.0195 81.0783 42.6013 80.767 43.1998 80.5542C43.673 80.3858 44.1588 80.261 44.6518 80.1808C45.2758 80.0793 45.927 80.0737 47.6408 80.0737H64.37H64.464C67.5978 80.0737 70.08 80.0737 72.076 79.8891C74.1175 79.7003 75.838 79.3061 77.3923 78.3982C79.5125 77.1598 81.2572 75.3057 82.423 73.0532C83.2775 71.4016 83.6485 69.5738 83.8262 67.4045C84 65.2837 84 62.6463 84 59.3167V59.2168V47.1538V47.0539C84 43.7243 84 41.0869 83.8262 38.9661C83.6485 36.797 83.2775 34.969 82.423 33.3176C81.2572 31.0648 79.5125 29.211 77.3923 27.9724C75.838 27.0645 74.1175 26.6703 72.076 26.4815C70.08 26.2968 67.5978 26.2968 64.464 26.2969H64.37H39.93H39.835C36.3285 26.2968 33.5663 26.2968 31.3483 26.502C29.0845 26.7115 27.2005 27.1466 25.5055 28.1369C23.1774 29.4966 21.2616 31.5323 19.9817 34.0058C19.0499 35.8068 18.6402 37.8085 18.4431 40.2138C18.25 42.5704 18.25 45.5053 18.25 49.2309V49.3319V77.7312V77.8425C18.25 79.96 18.2499 81.7052 18.3757 83.0758C18.5034 84.4674 18.7834 85.828 19.5936 86.9494C20.5761 88.3097 21.9998 89.233 23.5876 89.5395Z" fill="#7D7C80"/>
<path d="M106.766 50.9983C108.25 53.8671 108.25 57.6783 108.25 65.3006V93.6999C108.25 98.1245 108.25 100.337 107.32 101.624C106.64 102.566 105.654 103.205 104.555 103.418C103.052 103.708 101.2 102.697 97.4963 100.674L88.919 95.9896L88.913 95.9863C87.4447 95.1845 86.7097 94.783 85.9348 94.5077C85.3535 94.301 84.7568 94.1478 84.151 94.0492C83.3423 93.9175 82.5145 93.9175 80.8593 93.9175H64.13C57.7032 93.9175 54.4897 93.9175 52.0712 92.5046C50.9004 91.8208 49.8655 90.9145 49.0146 89.8369C48.1225 88.7072 47.8297 87.2475 47.8297 85.8081L47.8297 84.5H72.0007C81.3895 84.5 89 76.8888 89 67.5V44.5C96.174 44.5 99.331 44.3906 102.031 45.9677C104.027 47.1332 105.669 48.8781 106.766 50.9983Z" fill="#B9B9B9"/>
</svg>
