<?xml version="1.0" encoding="UTF-8" standalone="no"?>
<svg
   width="101"
   height="101"
   viewBox="0 0 101 101"
   fill="none"
   version="1.1"
   id="svg4"
   xml:space="preserve"
   xmlns="http://www.w3.org/2000/svg"
   xmlns:svg="http://www.w3.org/2000/svg"><path
     id="path1"
     clip-path="none"
     style="fill:#474747;fill-opacity:1"
     d="M 50.503906 0.49414062 C 22.890234 0.49414062 0.50585938 22.880468 0.50585938 50.494141 C 0.50585938 78.107713 22.890234 100.49219 50.503906 100.49219 C 78.117579 100.49219 100.50391 78.107713 100.50391 50.494141 C 100.50391 22.880468 78.117579 0.49414062 50.503906 0.49414062 z M 26.666016 27.166016 C 31.326745 27.166016 35.166016 31.005234 35.166016 35.666016 C 35.166016 40.326745 31.326745 44.166016 26.666016 44.166016 C 22.005234 44.166016 18.166016 40.326745 18.166016 35.666016 C 18.166016 31.005234 22.005234 27.166016 26.666016 27.166016 z M 73.666016 27.166016 C 78.326745 27.166016 82.166016 31.005234 82.166016 35.666016 C 82.166016 40.326745 78.326745 44.166016 73.666016 44.166016 C 69.005234 44.166016 65.166016 40.326745 65.166016 35.666016 C 65.166016 31.005234 69.005234 27.166016 73.666016 27.166016 z M 20 53.5 L 50.5 53.5 L 81 53.5 C 82.104599 53.5 83.007353 54.395548 82.939453 55.498047 C 82.453554 63.388239 79.102463 70.858374 73.480469 76.480469 C 67.385475 82.575363 59.119491 86 50.5 86 C 41.880509 86 33.614525 82.575363 27.519531 76.480469 C 21.897537 70.858374 18.546446 63.388239 18.060547 55.498047 C 17.992647 54.395548 18.895401 53.5 20 53.5 z " /><g
     id="path2"
     clip-path="none"
     style="fill:#ffffff;fill-opacity:1" /><g
     id="path3"
     clip-path="none"
     style="stroke:none;stroke-opacity:1;fill:#ffffff;fill-opacity:1" /><defs
     id="defs4" /></svg>
