<svg width="16" height="16" viewBox="0 0 16 16" fill="none" xmlns="http://www.w3.org/2000/svg">
<g clip-path="url(#clip0_2_62)">
<path d="M11 16.0039C11.8281 16.0039 12.5 15.332 12.5 14.5039C12.5 13.6758 11.8281 13.0039 11 13.0039C6.56641 13.0039 3 9.4375 3 5.00391C3 4.17578 2.32812 3.50391 1.5 3.50391C0.671875 3.50391 0 4.17578 0 5.00391C0 11.0586 4.94531 16.0039 11 16.0039Z" fill="black"/>
<path d="M4 0V6H2.28906L0 5V2.5C0 1.12109 1.12109 0 2.5 0H4Z" fill="black"/>
<path d="M6 4.50391V1.50391C6 0.675781 5.32812 0.00390625 4.5 0.00390625H3.5C2.67188 0.00390625 2 0.675781 2 1.50391V4.50391C2 5.33594 2.67188 6.00391 3.5 6.00391H4.5C5.32812 6.00391 6 5.33594 6 4.50391Z" fill="black"/>
<path d="M16.0039 12.0039H10.0039V13.7148L11.0039 16.0039H13.5039C14.8867 16.0039 16.0039 14.8828 16.0039 13.5039V12.0039Z" fill="black"/>
<path d="M11.5 10.0039H14.5C15.3281 10.0039 16 10.6758 16 11.5039V12.5039C16 13.332 15.3281 14.0039 14.5 14.0039H11.5C10.6719 14.0039 10 13.332 10 12.5039V11.5039C10 10.6758 10.6719 10.0039 11.5 10.0039Z" fill="black"/>
</g>
<defs>
<clipPath id="clip0_2_62">
<rect width="16" height="16" fill="white"/>
</clipPath>
</defs>
</svg>
