<svg width="16" height="16" viewBox="0 0 16 16" fill="none" xmlns="http://www.w3.org/2000/svg">
<g clip-path="url(#clip0_2_52)">
<path d="M12.9804 -0.0117122C12.9414 -0.0117122 12.9062 -0.00780591 12.8672 -0.00389966H7.99998V0.828132C7.9492 1.1211 8.03123 1.42188 8.22654 1.64844C8.41795 1.87501 8.7031 2.00001 8.99998 1.9961H10.5859L7.99998 4.58204L5.70701 2.28907C5.45701 2.02735 5.08201 1.92188 4.73435 2.01563C4.38279 2.10548 4.10935 2.37891 4.01951 2.73048C3.92576 3.08204 4.03123 3.45313 4.29295 3.70313L7.29295 6.70313C7.68357 7.09376 8.31639 7.09376 8.70701 6.70313L12 3.41016V4.9961C11.9961 5.29298 12.125 5.57423 12.3476 5.76563C12.5703 5.96094 12.8672 6.04298 13.1562 5.9961H14V1.12501C14.0117 1.03126 14.0117 0.941413 14 0.847663V-0.00389966H13.1445C13.0898 -0.0117122 13.0351 -0.0156184 12.9804 -0.0117122Z" fill="black"/>
<path d="M14.2422 15.7109C13.8555 16.0977 13.2383 16.0977 12.8555 15.7109L11.8125 14.6719L10.7734 13.6328C10.3906 13.2461 10.3906 12.6289 10.7734 12.2461L11.2656 11.75C9.23047 10.6445 6.76953 10.6445 4.73438 11.75L5.22656 12.2461C5.60938 12.6289 5.60938 13.2461 5.22656 13.6328L4.1875 14.6719L3.14453 15.7109C2.76172 16.0977 2.14453 16.0977 1.75781 15.7109L0.71875 14.6719C-0.238281 13.7148 -0.238281 12.1602 0.71875 11.2031L1.06641 10.8555C4.88281 7.03906 11.1172 7.03906 14.9336 10.8555L15.2812 11.2031C16.2383 12.1602 16.2383 13.7148 15.2812 14.6719L14.2422 15.7109Z" fill="black"/>
</g>
<defs>
<clipPath id="clip0_2_52">
<rect width="16" height="16" fill="white"/>
</clipPath>
</defs>
</svg>
