<svg width="16" height="16" viewBox="0 0 16 16" fill="none" xmlns="http://www.w3.org/2000/svg">
<path d="M8 3.99219C5.48828 3.99219 2.97266 4.94922 1.0625 6.85547L0.71875 7.20312C-0.238281 8.16016 -0.238281 9.71484 0.71875 10.6719L1.75781 11.7109C2.14062 12.0937 2.76172 12.0937 3.14453 11.7109L4.1875 10.6719L5.22656 9.63281C5.60938 9.24609 5.60938 8.62891 5.22656 8.24219L4.73047 7.75C6.76563 6.64453 9.23438 6.64453 11.2695 7.75L10.7734 8.24219C10.3906 8.62891 10.3906 9.24609 10.7734 9.63281L11.8125 10.6719L12.8555 11.7109C13.2383 12.0937 13.8594 12.0937 14.2422 11.7109L15.2812 10.6719C16.2383 9.71484 16.2383 8.16016 15.2812 7.20312L14.9375 6.85547C13.0273 4.94922 10.5117 3.99219 8 3.99219Z" fill="black"/>
</svg>
