<svg width="16" height="16" viewBox="0 0 16 16" fill="none" xmlns="http://www.w3.org/2000/svg">
<path d="M5.00391 2C5.55859 2 6.00391 2.44531 6.00391 3V6C6.00391 6.55469 5.55859 7 5.00391 7H4.29297C4.96484 9.26562 6.73828 11.043 9.00391 11.7109V11C9.00391 10.4453 9.45313 10 10.0039 10H13.0039C13.5586 10 14.0039 10.4453 14.0039 11V12.5C14.0039 13.8789 12.8867 15 11.5039 15H11.0039C5.5 15 1.00391 10.5039 1.00391 5V4.5C1.00391 3.12109 2.125 2 3.50391 2H5.00391Z" fill="black"/>
<path d="M8 4V6C9.11719 6 10 6.88281 10 8H12C12 5.80078 10.1992 4 8 4Z" fill="black"/>
<path d="M8 1V3C10.7734 3 13 5.22656 13 8H15C15 4.14453 11.8555 1 8 1Z" fill="black"/>
</svg>
