<svg width="16" height="16" viewBox="0 0 16 16" fill="none" xmlns="http://www.w3.org/2000/svg">
<g clip-path="url(#clip0_2_50)">
<path d="M8 1C7.44922 1 7 1.44922 7 2V5C7 5.55078 7.44922 6 8 6C8.55078 6 9 5.55078 9 5V2C9 1.44922 8.55078 1 8 1ZM1 3C0.734375 3 0.480469 3.10547 0.292969 3.29297C-0.0976563 3.68359 -0.0976563 4.31641 0.292969 4.70703L2.29297 6.70703C2.68359 7.09766 3.31641 7.09766 3.70703 6.70703C4.09766 6.31641 4.09766 5.68359 3.70703 5.29297L1.70703 3.29297C1.51953 3.10547 1.26562 3 1 3ZM15 3C14.7344 3 14.4805 3.10547 14.293 3.29297L12.293 5.29297C11.9023 5.68359 11.9023 6.31641 12.293 6.70703C12.6836 7.09766 13.3164 7.09766 13.707 6.70703L15.707 4.70703C16.0977 4.31641 16.0977 3.68359 15.707 3.29297C15.5195 3.10547 15.2656 3 15 3ZM8 7.99219C5.48828 7.99219 2.97266 8.94922 1.0625 10.8555L0.71875 11.2031C-0.238281 12.1602 -0.238281 13.7148 0.71875 14.6719L1.75781 15.7109C2.14062 16.0938 2.76172 16.0938 3.14453 15.7109L4.1875 14.6719L5.22656 13.6328C5.60938 13.2461 5.60938 12.6289 5.22656 12.2422L4.73047 11.75C6.76563 10.6445 9.23438 10.6445 11.2695 11.75L10.7734 12.2422C10.3906 12.6289 10.3906 13.2461 10.7734 13.6328L11.8125 14.6719L12.8555 15.7109C13.2383 16.0938 13.8594 16.0938 14.2422 15.7109L15.2812 14.6719C16.2383 13.7148 16.2383 12.1602 15.2812 11.2031L14.9375 10.8555C13.0273 8.94922 10.5117 7.99219 8 7.99219Z" fill="black"/>
</g>
<defs>
<clipPath id="clip0_2_50">
<rect width="16" height="16" fill="white"/>
</clipPath>
</defs>
</svg>
