<svg width="17" height="17" viewBox="0 0 17 17" fill="none" xmlns="http://www.w3.org/2000/svg">
<g clip-path="url(#clip0_2_100)">
<path d="M1.18359 4.5H0.5V13.5H1.14453L5.5 8.96484L1.18359 4.5Z" fill="black"/>
<path d="M7.5 3.50391C5.85547 3.50391 4.5 4.85938 4.5 6.50391V11.5039C4.5 13.1484 5.85547 14.5039 7.5 14.5039H13.5C15.1445 14.5039 16.5 13.1484 16.5 11.5039V6.50391C16.5 4.85938 15.1445 3.50391 13.5 3.50391H7.5ZM7.5 5.50391H13.5C14.0703 5.50391 14.5 5.93359 14.5 6.50391V11.5039C14.5 12.0781 14.0703 12.5039 13.5 12.5039H7.5C6.92969 12.5039 6.5 12.0781 6.5 11.5039V6.50391C6.5 5.93359 6.92969 5.50391 7.5 5.50391Z" fill="black"/>
</g>
<defs>
<clipPath id="clip0_2_100">
<rect width="16" height="16" fill="white" transform="translate(0.5 0.5)"/>
</clipPath>
</defs>
</svg>
