<svg width="17" height="17" viewBox="0 0 17 17" fill="none" xmlns="http://www.w3.org/2000/svg">
<g clip-path="url(#clip0_2_89)">
<path d="M7.5 3.50781C6.13281 3.50781 4.96875 4.44141 4.61328 5.70313L6.5 7.58984V6.50781C6.5 5.93359 6.92969 5.50781 7.5 5.50781H13.5C14.0703 5.50781 14.5 5.93359 14.5 6.50781V11.5078C14.5 12.0781 14.0703 12.5078 13.5 12.5078H11.418L13.418 14.5078H13.5C15.1445 14.5078 16.5 13.1523 16.5 11.5078V6.50781C16.5 4.85938 15.1445 3.50781 13.5 3.50781H7.5ZM1.22867 4.5C0.826235 4.5 0.5 4.82624 0.5 5.22867V12.9061C0.5 13.2341 0.765913 13.5 1.09393 13.5V13.5C1.12626 13.5 1.15719 13.4868 1.17959 13.4635L4.5 10.0078V11.5078C4.5 13.1523 5.85547 14.5078 7.5 14.5078H10.5687C10.836 14.5078 10.9698 14.1847 10.7808 13.9957L9.38084 12.5957C9.32458 12.5394 9.24827 12.5078 9.1687 12.5078H7.5C6.92969 12.5078 6.5 12.0781 6.5 11.5078V10.046C6.5 9.83397 6.4158 9.63058 6.2659 9.48057L1.33175 4.54272C1.30442 4.51537 1.26734 4.5 1.22867 4.5V4.5Z" fill="black"/>
<path d="M2.53125 1.5C2.23785 1.2066 1.76215 1.2066 1.46875 1.5V1.5C1.17535 1.7934 1.17535 2.2691 1.46875 2.5625L14.4063 15.5C14.6997 15.7934 15.1753 15.7934 15.4688 15.5V15.5C15.7622 15.2066 15.7622 14.7309 15.4688 14.4375L2.53125 1.5Z" fill="black"/>
</g>
<defs>
<clipPath id="clip0_2_89">
<rect width="16" height="16" fill="white" transform="translate(0.5 0.5)"/>
</clipPath>
</defs>
</svg>
