<svg width="101" height="101" viewBox="0 0 101 101" fill="none" xmlns="http://www.w3.org/2000/svg">
<g clip-path="url(#clip0_2_133)">
<path d="M50.5043 100.493C78.118 100.493 100.503 78.1073 100.503 50.4937C100.503 22.88 78.118 0.49469 50.5043 0.49469C22.8906 0.49469 0.505341 22.88 0.505341 50.4937C0.505341 78.1073 22.8906 100.493 50.5043 100.493Z" fill="#0FF66C"/>
<path d="M26.6666 41.3331C29.7961 41.3331 32.3331 38.7961 32.3331 35.6666C32.3331 32.537 29.7961 30 26.6666 30C23.537 30 21 32.537 21 35.6666C21 38.7961 23.537 41.3331 26.6666 41.3331Z" fill="white" stroke="white" stroke-width="5.66655" stroke-linecap="round" stroke-linejoin="round"/>
<path d="M73.6666 41.3331C76.7961 41.3331 79.3331 38.7961 79.3331 35.6666C79.3331 32.537 76.7961 30 73.6666 30C70.537 30 68 32.537 68 35.6666C68 38.7961 70.537 41.3331 73.6666 41.3331Z" fill="white" stroke="white" stroke-width="5.66655" stroke-linecap="round" stroke-linejoin="round"/>
<path d="M20 53.5C18.8954 53.5 17.9936 54.3965 18.0615 55.499C18.5474 63.3892 21.897 70.8589 27.519 76.481C33.614 82.5759 41.8805 86 50.5 86C59.1195 86 67.386 82.5759 73.481 76.481C79.103 70.8589 82.4526 63.3892 82.9385 55.499C83.0064 54.3965 82.1046 53.5 81 53.5L50.5 53.5L20 53.5Z" fill="white"/>
</g>
<defs>
<clipPath id="clip0_2_133">
<rect width="99.9987" height="99.9987" fill="white" transform="translate(0.5 0.5)"/>
</clipPath>
</defs>
</svg>
