<svg width="107" height="107" viewBox="0 0 107 107" fill="none" xmlns="http://www.w3.org/2000/svg">
<g clip-path="url(#clip0_2_79)">
<path d="M48.4886 9.70037C49.9216 4.48775 45.8428 -0.600702 40.5933 0.690767C34.418 2.21002 28.5341 4.82527 23.2319 8.44101C14.9082 14.1173 8.35641 22.0285 4.33065 31.2642C0.304892 40.4998 -1.03121 50.6845 0.476137 60.6461C1.98348 70.6076 6.27299 79.9411 12.851 87.5722C19.429 95.2034 28.028 100.822 37.6585 103.782C47.2889 106.741 57.5593 106.921 67.2876 104.301C77.0159 101.681 85.8066 96.3668 92.6479 88.9709C97.0057 84.2599 100.46 78.826 102.873 72.9424C104.924 67.9405 100.492 63.1561 95.1254 63.8052L81.7945 65.4174C57.7975 68.3196 38.5214 45.9584 44.9285 22.6511L48.4886 9.70037Z" fill="#FFA800"/>
</g>
<defs>
<clipPath id="clip0_2_79">
<rect width="107" height="107" fill="white"/>
</clipPath>
</defs>
</svg>
