<svg width="129" height="129" viewBox="0 0 129 129" fill="none" xmlns="http://www.w3.org/2000/svg">
<path opacity="0.9" fill-rule="evenodd" clip-rule="evenodd" d="M34.639 52.805C32.3086 52.6938 30.4868 53.257 29.2816 54.4612C28.8796 54.8456 28.3245 55.6229 28.0291 56.4969L5.80111 118.471C4.51111 122.051 7.97091 125.511 11.5609 124.231L70.8269 103.001C73.1473 103.107 74.9615 102.543 76.1628 101.343C81.1351 96.3656 74.6734 81.8395 61.7288 68.8955C52.3107 59.4773 41.641 53.139 34.639 52.805Z" fill="black"/>
<mask id="mask0_2_104" style="mask-type:luminance" maskUnits="userSpaceOnUse" x="5" y="55" width="70" height="70">
<path d="M28.48 55.16L74.87 101.55L11.56 124.23C7.97 125.51 4.51 122.05 5.8 118.47L28.48 55.16Z" fill="white"/>
</mask>
<g mask="url(#mask0_2_104)">
<path d="M39.9 124.44C31.44 122.66 23.8 120.52 16.61 115.49C9.87001 110.78 2.95001 103.71 0.280007 95.78C-1.79999 89.6 -11.08 93.98 -7.68999 99.14C-2.16999 107.54 3.47001 114.91 12.04 120.45C19.84 125.5 29.86 129.38 39.27 129.14C41.86 129.07 42.63 125.02 39.9 124.44Z" fill="black"/>
</g>
<mask id="mask1_2_104" style="mask-type:luminance" maskUnits="userSpaceOnUse" x="5" y="55" width="70" height="70">
<path d="M28.48 55.16L74.87 101.55L11.56 124.23C7.97 125.51 4.51 122.05 5.8 118.47L28.48 55.16Z" fill="white"/>
</mask>
<g mask="url(#mask1_2_104)">
<path d="M51.57 114.21C43.11 112.43 35.47 110.29 28.28 105.26C21.54 100.55 14.62 93.48 11.95 85.55C9.86999 79.37 0.589991 83.75 3.97999 88.91C9.49999 97.31 15.14 104.68 23.71 110.22C31.51 115.27 41.53 119.15 50.94 118.91C53.54 118.84 54.3 114.78 51.57 114.21Z" fill="black"/>
</g>
<mask id="mask2_2_104" style="mask-type:luminance" maskUnits="userSpaceOnUse" x="5" y="55" width="70" height="70">
<path d="M28.48 55.16L74.87 101.55L11.56 124.23C7.97 125.51 4.51 122.05 5.8 118.47L28.48 55.16Z" fill="white"/>
</mask>
<g mask="url(#mask2_2_104)">
<path d="M77.21 107.16C64.26 104.67 52.67 101.43 41.66 93.79C31.3 86.6 21.33 76.1 16.8 64.15C14.53 58.17 5.64002 62.13 8.83002 67.51C16.22 79.97 24.84 90.6799 37.06 98.7399C48.29 106.15 62.91 112.11 76.58 111.86C79.17 111.81 79.95 107.69 77.21 107.16Z" fill="black"/>
</g>
<path d="M36.07 57.78C45.2875 59.6018 52.277 66.9137 57.566 72.203C70.576 85.213 75.511 95.288 72.04 97.21C63.9982 101.663 52.827 88.3135 48.547 84.029C35.537 71.019 30.6 61.38 33.41 58.58M34.07 52.78C32.06 52.78 30.43 53.32 29.29 54.46C24.32 59.43 30.78 73.96 43.72 86.91C53.7 96.89 64.63 103.02 71.38 103.02C73.39 103.02 75.02 102.48 76.16 101.34C81.13 96.37 74.67 81.84 61.73 68.89C51.75 58.91 40.83 52.78 34.07 52.78Z" fill="black"/>
<path d="M20.89 26.35L16.21 27.22L12.25 17.24L18.97 15.99L20.89 26.35Z" fill="black"/>
<path d="M52.72 5.66L57.15 4.5L61.67 13.81L55.3 15.48L52.72 5.66Z" fill="black"/>
<path d="M109.47 19.11L112.36 23.23L104.5 31.42L100.35 25.5L109.47 19.11Z" fill="black"/>
<path d="M61.33 95.95C64.43 87.98 69.94 83.76 78.86 83.65C87.94 83.54 102.75 89 103.46 99.72C103.46 98.08 103.46 96.45 103.47 94.81C102.77 98.72 98.72 100.35 95.05 99.51C91.15 98.62 88.59 95.34 88.09 91.49C88.09 93.13 88.09 94.76 88.1 96.4C88.51 87.51 98.06 84.61 105.57 84.72C113.41 84.84 119.01 90.11 123.3 96.17C122.53 95.08 124.1 92.3 123.3 91.17C118.79 84.81 112.96 79.56 104.73 79.71C98.04 79.84 89.3 82.39 88.15 90.06C87.76 92.68 87.67 96.61 88.66 99.08C90.69 104.17 100.77 107.92 103.24 101.07C106.8 91.2 96.86 82.99 88.62 80.28C82.46 78.26 75.4 77.84 69.41 80.7C64.96 82.83 63.03 86.55 61.32 90.94C60.76 92.41 61.88 94.52 61.33 95.95Z" fill="black"/>
<path d="M71.66 65.72C75.16 67.58 79.14 70.16 83.11 68.04C85.4 66.81 86.58 64.47 87.55 62.17C89.77 56.92 90.8 53.92 96.89 56.72C100.47 58.36 108.76 63.79 110.27 56.84C111.05 53.23 109.77 49.39 109.58 45.84C109.58 47.48 109.58 49.11 109.57 50.75C110.48 44.47 119.62 46.65 123.48 48.32C122.9 48.07 124.12 43.6 123.48 43.32C119.31 41.51 110.36 39.52 109.56 46.09C109.16 49.38 109.98 52.59 110.32 55.82C110.32 54.18 110.32 52.55 110.31 50.91C109.75 62.28 95.09 47.64 90.57 51.06C88.06 52.96 87.77 57.61 86.08 60.15C82.28 65.88 76.68 63.41 71.65 60.73C72.32 61.07 70.94 65.34 71.66 65.72Z" fill="black"/>
<path d="M35.29 64.31C41.93 63.59 43.3 56.85 42.26 51.27C40.77 43.26 29 42.54 28.26 34.73C28.26 36.37 28.26 38 28.27 39.64C28.51 35.43 31.77 32.45 35.2 30.51C38.38 28.72 40.15 26.55 40.57 22.7C41.16 17.2 39.36 13.38 34.31 10.53C35 10.92 33.57 15.11 34.31 15.53C36.83 16.95 40.26 19.6 40.57 22.7V17.7C39.45 24.05 36.13 23.96 32.04 27.61C28.96 30.36 28.24 33.37 28.24 37.23C28.24 40.92 29.13 43.28 32.23 45.67C36.51 48.96 41.34 51 42.36 56.9C42.36 55.26 42.36 53.63 42.35 51.99C42.16 56.13 39.29 58.88 35.28 59.31C35.07 59.33 35.43 64.29 35.29 64.31Z" fill="black"/>
<path d="M44.23 80.7C49.53 82.97 57.18 77.83 58.64 72.74C59.37 70.21 59.42 66.56 59.08 63.94C58.6 60.23 55.5 57.86 54.14 54.52C53.05 51.84 53.69 49.55 55.24 46.66C57.74 42.01 68.94 34.96 70.76 43.99C70.76 42.44 70.75 40.88 70.75 39.33C70.71 42.19 68.99 44.41 65.95 43.82C62.99 43.25 61.7 40.55 61.31 37.86C61.32 39.28 61.32 40.71 61.33 42.13C61.49 29.96 74.68 25.44 84.7 24.8C84.84 24.79 84.63 19.8 84.7 19.8C71.94 20.61 61.29 26.59 61.29 40.36C61.29 44.04 62.31 49.4 67.25 48.92C71.29 48.53 70.89 43.82 70.79 40.82C70.65 36.67 67.84 33.81 63.3 34.92C58.1 36.2 54.6 41.28 53.57 46.27C53.02 48.93 53.09 51.86 53.22 54.57C53.48 60.34 58.18 63.58 59.08 68.93C59.08 67.29 59.08 65.66 59.07 64.02C58.77 68.29 57.36 71.4 53.62 73.89C51.08 75.58 47.2 76.96 44.22 75.68C44.8 75.94 43.59 80.43 44.23 80.7Z" fill="black"/>
</svg>
