<svg width="17" height="17" viewBox="0 0 17 17" fill="none" xmlns="http://www.w3.org/2000/svg">
<g clip-path="url(#clip0_2_96)">
<path d="M11.53 3.53004C11.3111 3.57734 11.1094 3.70057 10.9675 3.87379L4.6863 11.0613L2.4363 8.81129C2.05997 8.43491 1.37507 8.4349 0.998674 8.81125C0.622324 9.18761 0.622355 9.87244 0.998735 10.2488L3.99873 13.2488L4.77998 13.9988L5.46748 13.1863L12.4675 5.18635C13.0349 4.56862 12.3517 3.36144 11.53 3.53004Z" fill="#0094FF"/>
<path d="M15.25 3.53003C15.0165 3.58043 14.8014 3.71193 14.65 3.8967L7.95001 11.5634L7.83015 11.4436C7.70772 11.3211 7.50736 11.3275 7.39291 11.4574L6.36247 12.6272C6.25862 12.7451 6.26331 12.9231 6.37323 13.0354L7.21667 13.8968L8.04999 14.6968L8.78333 13.8301L16.25 5.2968C16.8553 4.63788 16.1265 3.35023 15.25 3.53003Z" fill="#0094FF"/>
</g>
<defs>
<clipPath id="clip0_2_96">
<rect width="16" height="16" fill="white" transform="translate(0.5 0.5)"/>
</clipPath>
</defs>
</svg>
