<svg width="17" height="22" viewBox="0 0 17 22" fill="none" xmlns="http://www.w3.org/2000/svg">
<g clip-path="url(#clip0_2_152)">
<path d="M12.21 12.5L13.4999 14.3428V18.5H3.49991L7.21001 13.5L9.21001 15.5944" fill="black"/>
<path d="M6.56291 9.96851C6.56291 10.3747 6.40155 10.7642 6.11434 11.0514C5.82713 11.3387 5.43759 11.5 5.03141 11.5C4.62523 11.5 4.23569 11.3387 3.94847 11.0514C3.66126 10.7642 3.49991 10.3747 3.49991 9.96851C3.49991 9.56233 3.66126 9.17279 3.94847 8.88558C4.23569 8.59837 4.62523 8.43701 5.03141 8.43701C5.43759 8.43701 5.82713 8.59837 6.11434 8.88558C6.40155 9.17279 6.56291 9.56233 6.56291 9.96851Z" fill="black"/>
<path d="M2.5 1.75C1.2368 1.75 0.5164 2.53574 0.5 3.75V19.5C0.5 20.6966 1.18685 21.4999 2.5 21.5H14.5C15.7965 21.5 16.5 20.7659 16.5 19.5V8C16.5005 7.8009 16.4218 7.60978 16.2812 7.46875L10.7812 1.96875C10.6402 1.82822 10.4491 1.74952 10.25 1.75H2.5ZM2 3.25H9.75V8C9.75003 8.27613 9.97387 8.49997 10.25 8.5H15V20H2V3.25Z" fill="black"/>
</g>
<defs>
<clipPath id="clip0_2_152">
<rect width="16" height="21" fill="white" transform="translate(0.5 0.5)"/>
</clipPath>
</defs>
</svg>
