<svg width="17" height="22" viewBox="0 0 17 22" fill="none" xmlns="http://www.w3.org/2000/svg">
<g clip-path="url(#clip0_2_144)">
<path d="M6.5 12.5H3.5V10.5H6.5V12.5Z" fill="black"/>
<path d="M10.5 12.5H7.5V10.5H10.5V12.5Z" fill="black"/>
<path d="M6.5 15.5H3.5V13.5H6.5V15.5Z" fill="black"/>
<path d="M10.5 15.5H7.5V13.5H10.5V15.5Z" fill="black"/>
<path d="M6.5 18.5H3.5V16.5H6.5V18.5Z" fill="black"/>
<path d="M10.5 18.5H7.5V16.5H10.5V18.5Z" fill="black"/>
<path d="M2.5 1.75C1.2368 1.75 0.5164 2.53574 0.5 3.75V19.5C0.5 20.6966 1.18685 21.4999 2.5 21.5H14.5C15.7965 21.5 16.5 20.7659 16.5 19.5V8C16.5005 7.8009 16.4218 7.60978 16.2812 7.46875L10.7812 1.96875C10.6402 1.82822 10.4491 1.74952 10.25 1.75H2.5ZM2 3.25H9.75V8C9.75003 8.27613 9.97387 8.49997 10.25 8.5H15V20H2V3.25Z" fill="black"/>
</g>
<defs>
<clipPath id="clip0_2_144">
<rect width="16" height="21" fill="white" transform="translate(0.5 0.5)"/>
</clipPath>
</defs>
</svg>
