<svg width="17" height="22" viewBox="0 0 17 22" fill="none" xmlns="http://www.w3.org/2000/svg">
<g clip-path="url(#clip0_2_163)">
<path d="M2.5 1.75C1.2368 1.75 0.5164 2.53574 0.5 3.75V19.5C0.5 20.6966 1.18685 21.4999 2.5 21.5H14.5C15.7965 21.5 16.5 20.7659 16.5 19.5V8C16.5005 7.8009 16.4218 7.60978 16.2812 7.46875L10.7812 1.96875C10.6402 1.82822 10.4491 1.74952 10.25 1.75H2.5ZM2 3.25H9.75V8C9.75003 8.27613 9.97387 8.49997 10.25 8.5H15V20H2V3.25Z" fill="black"/>
<path d="M5.19339 14.273C4.83549 14.2783 4.49432 14.4254 4.2449 14.6822C3.99548 14.9389 3.85822 15.2842 3.8633 15.6421V17.0191C3.8633 17.1965 3.89823 17.3721 3.9661 17.5359C4.03398 17.6998 4.13346 17.8487 4.25888 17.9741C4.38429 18.0995 4.53318 18.199 4.69704 18.2669C4.86091 18.3348 5.03653 18.3697 5.2139 18.3697C5.39126 18.3697 5.56689 18.3348 5.73075 18.2669C5.89461 18.199 6.0435 18.0995 6.16891 17.9741C6.29433 17.8487 6.39381 17.6998 6.46169 17.5359C6.52956 17.3721 6.56449 17.1965 6.56449 17.0191V15.6421C6.56706 15.4614 6.53333 15.2821 6.46531 15.1147C6.39729 14.9473 6.29636 14.7952 6.1685 14.6676C6.04064 14.5399 5.88845 14.4392 5.72096 14.3714C5.55346 14.3036 5.37406 14.2702 5.19339 14.273Z" fill="black"/>
<path d="M11.615 14.273C11.2574 14.2788 10.9168 14.4262 10.6678 14.6829C10.4188 14.9395 10.2818 15.2845 10.2869 15.6421V17.0191C10.282 17.1994 10.3132 17.3789 10.3789 17.5469C10.4445 17.715 10.5431 17.8681 10.6689 17.9974C10.7947 18.1267 10.9452 18.2295 11.1113 18.2996C11.2775 18.3698 11.4561 18.4059 11.6365 18.4059C11.8169 18.4059 11.9954 18.3698 12.1616 18.2996C12.3278 18.2295 12.4782 18.1267 12.604 17.9974C12.7299 17.8681 12.8285 17.715 12.8941 17.5469C12.9597 17.3789 12.991 17.1994 12.9861 17.0191V15.6421C12.9886 15.4614 12.9549 15.2821 12.8869 15.1147C12.8189 14.9473 12.7179 14.7952 12.5901 14.6676C12.4622 14.5399 12.31 14.4392 12.1425 14.3714C11.975 14.3036 11.7956 14.2702 11.615 14.273Z" fill="black"/>
<path d="M8.42381 9.9824C6.88581 9.9824 5.66631 10.627 4.91791 11.6445C4.16953 12.662 3.86321 13.9915 3.86321 15.4062C3.85925 15.4939 3.87312 15.5816 3.90397 15.6638C3.93482 15.7461 3.98202 15.8212 4.04271 15.8847C4.1034 15.9482 4.17633 15.9987 4.25709 16.0332C4.33785 16.0677 4.42478 16.0855 4.51261 16.0855C4.60044 16.0855 4.68736 16.0677 4.76813 16.0332C4.84889 15.9987 4.92182 15.9482 4.98251 15.8847C5.0432 15.8212 5.0904 15.7461 5.12125 15.6638C5.1521 15.5816 5.16597 15.4939 5.16201 15.4062C5.16201 14.1844 5.44175 13.127 5.96474 12.416C6.48773 11.7049 7.22434 11.2812 8.42374 11.2812C9.55254 11.2812 10.2962 11.7095 10.8358 12.4316C11.3754 13.1537 11.6776 14.2116 11.6776 15.4062C11.6776 15.5787 11.7462 15.7441 11.8681 15.8661C11.9901 15.9881 12.1555 16.0566 12.328 16.0566C12.5005 16.0566 12.666 15.9881 12.7879 15.8661C12.9099 15.7441 12.9784 15.5787 12.9784 15.4062C12.9784 13.9973 12.637 12.669 11.8788 11.6542C11.1206 10.6394 9.91221 9.9824 8.42381 9.9824Z" fill="black"/>
</g>
<defs>
<clipPath id="clip0_2_163">
<rect width="16" height="21" fill="white" transform="translate(0.5 0.5)"/>
</clipPath>
</defs>
</svg>
