<svg width="17" height="22" viewBox="0 0 17 22" fill="none" xmlns="http://www.w3.org/2000/svg">
<g clip-path="url(#clip0_2_160)">
<path d="M6.93771 10.518C6.69193 10.5315 6.49965 10.7349 6.5 10.981V16.5374C6.50082 16.9189 6.93677 17.1358 7.24158 16.9064L11.3156 14.1282C11.5615 13.9429 11.5615 13.5737 11.3156 13.3884L7.24158 10.6102C7.15433 10.5446 7.04671 10.512 6.93771 10.518Z" fill="black"/>
<path d="M2.5 1.75C1.2368 1.75 0.5164 2.53574 0.5 3.75V19.5C0.5 20.6966 1.18685 21.4999 2.5 21.5H14.5C15.7965 21.5 16.5 20.7659 16.5 19.5V8C16.5005 7.8009 16.4218 7.60978 16.2812 7.46875L10.7812 1.96875C10.6402 1.82822 10.4491 1.74952 10.25 1.75H2.5ZM2 3.25H9.75V8C9.75003 8.27613 9.97387 8.49997 10.25 8.5H15V20H2V3.25Z" fill="black"/>
</g>
<defs>
<clipPath id="clip0_2_160">
<rect width="16" height="21" fill="white" transform="translate(0.5 0.5)"/>
</clipPath>
</defs>
</svg>
